<svg width="200" height="200" viewBox="0 0 200 200" fill="none" xmlns="http://www.w3.org/2000/svg">
<path d="M135.448 80.767C135.447 80.1993 135.261 79.6474 134.917 79.1959C134.573 78.7445 134.09 78.4184 133.543 78.2678L110.644 55.9562C110.404 55.6571 110.1 55.4158 109.754 55.2503C109.407 55.0847 109.029 54.9992 108.645 55H68.6579C68.046 54.9991 67.4398 55.1189 66.8743 55.3526C66.3087 55.5864 65.7949 55.9294 65.3621 56.3621C64.9294 56.7949 64.5864 57.3087 64.3526 57.8743C64.1189 58.4398 63.9991 59.046 64 59.6579V139.342C63.9991 139.954 64.1189 140.56 64.3526 141.126C64.5864 141.691 64.9294 142.205 65.3621 142.638C65.7949 143.071 66.3087 143.414 66.8743 143.647C67.4398 143.881 68.046 144.001 68.6579 144H130.797C132.029 143.996 133.21 143.503 134.079 142.63C134.948 141.757 135.435 140.574 135.433 139.342C135.433 119.807 135.433 100.278 135.433 80.7525L135.448 80.767ZM111.231 64.1057L126.791 78.6807H111.231V64.1057ZM69.2012 138.813V60.1795H106.015V81.2668C106.015 81.9604 106.291 82.6255 106.781 83.116C107.272 83.6064 107.937 83.8819 108.63 83.8819H130.247C130.247 102.195 130.247 120.505 130.247 138.813H69.2012Z" fill="black"/>
</svg>
