<svg width="254" height="209" viewBox="0 0 254 209" fill="none" xmlns="http://www.w3.org/2000/svg">
<mask id="mask0_2004_192" style="mask-type:alpha" maskUnits="userSpaceOnUse" x="0" y="0" width="254" height="210">
<rect width="254" height="210" fill="#D9D9D9"/>
</mask>
<g mask="url(#mask0_2004_192)">
<g clip-path="url(#clip0_2004_192)">
<mask id="mask1_2004_192" style="mask-type:luminance" maskUnits="userSpaceOnUse" x="-41" y="0" width="296" height="209">
<path d="M-40.5555 -8.07193e-05H255V209H-40.5555V-8.07193e-05Z" fill="white"/>
</mask>
<g mask="url(#mask1_2004_192)">
<path d="M67.3451 155.652C59.3862 155.652 52.9105 149.176 52.9105 141.217V106.696H61.6949V141.217C61.6949 144.332 64.2293 146.867 67.3451 146.867C70.4609 146.867 72.996 144.332 72.996 141.217V106.696H81.7804V141.217C81.7804 149.176 75.3048 155.652 67.3451 155.652Z" fill="#009EA9"/>
</g>
<mask id="mask2_2004_192" style="mask-type:luminance" maskUnits="userSpaceOnUse" x="-41" y="0" width="296" height="209">
<path d="M-40.5555 -8.07193e-05H255V209H-40.5555V-8.07193e-05Z" fill="white"/>
</mask>
<g mask="url(#mask2_2004_192)">
<path d="M67.3459 160.044C75.3049 160.044 81.7805 166.52 81.7805 174.479V209H72.9959V174.479C72.9959 171.364 70.4617 168.829 67.3459 168.829C64.2301 168.829 61.695 171.364 61.695 174.479V209H52.9106V174.479C52.9106 166.52 59.3863 160.044 67.3459 160.044Z" fill="#009EA9"/>
</g>
<mask id="mask3_2004_192" style="mask-type:luminance" maskUnits="userSpaceOnUse" x="-41" y="0" width="296" height="209">
<path d="M-40.5555 -8.07193e-05H255V209H-40.5555V-8.07193e-05Z" fill="white"/>
</mask>
<g mask="url(#mask3_2004_192)">
<path d="M48.5185 121.131C48.5185 113.171 42.0431 106.696 34.0832 106.696H-0.437378V115.48H34.0832C37.199 115.48 39.7341 118.015 39.7341 121.131C39.7341 124.247 37.199 126.781 34.0832 126.781H-0.437378V126.782V135.566V135.566H34.0832C37.199 135.566 39.7341 138.102 39.7341 141.217C39.7341 144.333 37.199 146.867 34.0832 146.867H-0.437378V155.652H34.0832C42.0431 155.652 48.5185 149.176 48.5185 141.217C48.5185 137.315 46.9555 133.775 44.4303 131.174C46.9555 128.573 48.5185 125.034 48.5185 121.131Z" fill="#009EA9"/>
</g>
<mask id="mask4_2004_192" style="mask-type:luminance" maskUnits="userSpaceOnUse" x="-41" y="0" width="296" height="209">
<path d="M-40.5555 -8.07193e-05H255V209H-40.5555V-8.07193e-05Z" fill="white"/>
</mask>
<g mask="url(#mask4_2004_192)">
<path d="M34.084 160.044C30.1813 160.044 26.6415 161.607 24.0405 164.132C21.4401 161.607 17.9001 160.044 13.9978 160.044C6.03813 160.044 -0.4375 166.52 -0.4375 174.479V209H8.34686V174.479C8.34686 171.364 10.882 168.829 13.9978 168.829C17.1138 168.829 19.648 171.364 19.648 174.479V209H19.649H28.4324H28.4331V174.479C28.4331 171.364 30.9682 168.829 34.084 168.829C37.1998 168.829 39.7342 171.364 39.7342 174.479V209H48.5186V174.479C48.5186 166.52 42.043 160.044 34.084 160.044Z" fill="#009EA9"/>
</g>
<mask id="mask5_2004_192" style="mask-type:luminance" maskUnits="userSpaceOnUse" x="-41" y="0" width="296" height="209">
<path d="M-40.5555 -8.07193e-05H255V209H-40.5555V-8.07193e-05Z" fill="white"/>
</mask>
<g mask="url(#mask5_2004_192)">
<path d="M153.955 102.304C145.996 102.304 139.521 95.8286 139.521 87.8687V53.3481H148.305V87.8687C148.305 90.9845 150.839 93.5196 153.955 93.5196C157.071 93.5196 159.606 90.9845 159.606 87.8687V53.3481H168.39V87.8687C168.39 95.8286 161.914 102.304 153.955 102.304Z" fill="#009EA9"/>
</g>
<mask id="mask6_2004_192" style="mask-type:luminance" maskUnits="userSpaceOnUse" x="-41" y="0" width="296" height="209">
<path d="M-40.5555 -8.07193e-05H255V209H-40.5555V-8.07193e-05Z" fill="white"/>
</mask>
<g mask="url(#mask6_2004_192)">
<path d="M153.956 106.696C161.915 106.696 168.39 113.172 168.39 121.131V155.652H159.606V121.131C159.606 118.016 157.072 115.48 153.956 115.48C150.84 115.48 148.305 118.016 148.305 121.131V155.652H139.521V121.131C139.521 113.172 145.996 106.696 153.956 106.696Z" fill="#009EA9"/>
</g>
<mask id="mask7_2004_192" style="mask-type:luminance" maskUnits="userSpaceOnUse" x="-41" y="0" width="296" height="209">
<path d="M-40.5555 -8.07193e-05H255V209H-40.5555V-8.07193e-05Z" fill="white"/>
</mask>
<g mask="url(#mask7_2004_192)">
<path d="M135.128 67.7834C135.128 59.8237 128.653 53.3481 120.693 53.3481H86.1725V62.1325H120.693C123.809 62.1325 126.344 64.6676 126.344 67.7834C126.344 70.8992 123.809 73.4334 120.693 73.4334H86.1725V73.4343V82.218V82.2187H120.693C123.809 82.2187 126.344 84.7538 126.344 87.8696C126.344 90.9854 123.809 93.5196 120.693 93.5196H86.1725V102.304H120.693C128.653 102.304 135.128 95.8286 135.128 87.8696C135.128 83.9669 133.565 80.4268 131.04 77.8262C133.565 75.2255 135.128 71.6857 135.128 67.7834Z" fill="#009EA9"/>
</g>
<mask id="mask8_2004_192" style="mask-type:luminance" maskUnits="userSpaceOnUse" x="-41" y="0" width="296" height="209">
<path d="M-40.5555 -8.07193e-05H255V209H-40.5555V-8.07193e-05Z" fill="white"/>
</mask>
<g mask="url(#mask8_2004_192)">
<path d="M120.694 106.696C116.791 106.696 113.251 108.259 110.65 110.784C108.05 108.259 104.51 106.696 100.608 106.696C92.648 106.696 86.1724 113.172 86.1724 121.131V155.652H94.9567V121.131C94.9567 118.016 97.4919 115.48 100.608 115.48C103.723 115.48 106.258 118.016 106.258 121.131V155.652H106.259H115.042H115.043V121.131C115.043 118.016 117.578 115.48 120.694 115.48C123.81 115.48 126.344 118.016 126.344 121.131V155.652H135.128V121.131C135.128 113.172 128.653 106.696 120.694 106.696Z" fill="#009EA9"/>
</g>
<mask id="mask9_2004_192" style="mask-type:luminance" maskUnits="userSpaceOnUse" x="-41" y="0" width="296" height="209">
<path d="M-40.5555 -8.07193e-05H255V209H-40.5555V-8.07193e-05Z" fill="white"/>
</mask>
<g mask="url(#mask9_2004_192)">
<path d="M240.565 48.9558C232.606 48.9558 226.13 42.4804 226.13 34.5205V-4.21337e-05H234.915V34.5205C234.915 37.6363 237.449 40.1714 240.565 40.1714C243.681 40.1714 246.216 37.6363 246.216 34.5205V-4.21337e-05H255V34.5205C255 42.4804 248.524 48.9558 240.565 48.9558Z" fill="#009EA9"/>
</g>
<mask id="mask10_2004_192" style="mask-type:luminance" maskUnits="userSpaceOnUse" x="-41" y="0" width="296" height="209">
<path d="M-40.5555 -8.07193e-05H255V209H-40.5555V-8.07193e-05Z" fill="white"/>
</mask>
<g mask="url(#mask10_2004_192)">
<path d="M240.566 53.3481C248.525 53.3481 255 59.8235 255 67.7834V102.304H246.216V67.7834C246.216 64.6676 243.681 62.1325 240.566 62.1325C237.45 62.1325 234.915 64.6676 234.915 67.7834V102.304H226.13V67.7834C226.13 59.8235 232.606 53.3481 240.566 53.3481Z" fill="#009EA9"/>
</g>
<mask id="mask11_2004_192" style="mask-type:luminance" maskUnits="userSpaceOnUse" x="-41" y="0" width="296" height="209">
<path d="M-40.5555 -8.07193e-05H255V209H-40.5555V-8.07193e-05Z" fill="white"/>
</mask>
<g mask="url(#mask11_2004_192)">
<path d="M221.738 14.4353C221.738 6.47559 215.263 -4.12843e-05 207.303 -4.12843e-05H172.782V8.78432H207.303C210.419 8.78432 212.954 11.3195 212.954 14.4353C212.954 17.5511 210.419 20.0852 207.303 20.0852H172.782V20.0862V28.8696V28.8706H207.303C210.419 28.8706 212.954 31.4057 212.954 34.5215C212.954 37.6373 210.419 40.1714 207.303 40.1714H172.782V48.9558H207.303C215.263 48.9558 221.738 42.4804 221.738 34.5215C221.738 30.6185 220.175 27.0787 217.65 24.478C220.175 21.8773 221.738 18.3375 221.738 14.4353Z" fill="#009EA9"/>
</g>
<mask id="mask12_2004_192" style="mask-type:luminance" maskUnits="userSpaceOnUse" x="-41" y="0" width="296" height="209">
<path d="M-40.5555 -8.07193e-05H255V209H-40.5555V-8.07193e-05Z" fill="white"/>
</mask>
<g mask="url(#mask12_2004_192)">
<path d="M207.304 53.3481C203.401 53.3481 199.861 54.9111 197.26 57.4363C194.66 54.9111 191.12 53.3481 187.218 53.3481C179.258 53.3481 172.782 59.8235 172.782 67.7834V102.304H181.567V67.7834C181.567 64.6676 184.102 62.1325 187.218 62.1325C190.333 62.1325 192.868 64.6676 192.868 67.7834V102.304H192.869H201.652H201.653V67.7834C201.653 64.6676 204.188 62.1325 207.304 62.1325C210.42 62.1325 212.954 64.6676 212.954 67.7834V102.304H221.738V67.7834C221.738 59.8235 215.263 53.3481 207.304 53.3481Z" fill="#009EA9"/>
</g>
</g>
<g clip-path="url(#clip1_2004_192)">
<mask id="mask13_2004_192" style="mask-type:luminance" maskUnits="userSpaceOnUse" x="45" y="54" width="297" height="209">
<path d="M45.882 53.9999H341.438V263H45.882V53.9999Z" fill="white"/>
</mask>
<g mask="url(#mask13_2004_192)">
<path d="M153.783 209.652C145.824 209.652 139.348 203.176 139.348 195.217V160.696H148.132V195.217C148.132 198.332 150.667 200.867 153.783 200.867C156.898 200.867 159.434 198.332 159.434 195.217V160.696H168.218V195.217C168.218 203.176 161.742 209.652 153.783 209.652Z" fill="#009EA9"/>
</g>
<mask id="mask14_2004_192" style="mask-type:luminance" maskUnits="userSpaceOnUse" x="45" y="54" width="297" height="209">
<path d="M45.882 53.9999H341.438V263H45.882V53.9999Z" fill="white"/>
</mask>
<g mask="url(#mask14_2004_192)">
<path d="M134.956 175.131C134.956 167.171 128.481 160.696 120.521 160.696H86.0001V169.48H120.521C123.636 169.48 126.172 172.015 126.172 175.131C126.172 178.247 123.636 180.781 120.521 180.781H86.0001V180.782V189.566V189.566H120.521C123.636 189.566 126.172 192.102 126.172 195.217C126.172 198.333 123.636 200.867 120.521 200.867H86.0001V209.652H120.521C128.481 209.652 134.956 203.176 134.956 195.217C134.956 191.315 133.393 187.775 130.868 185.174C133.393 182.573 134.956 179.034 134.956 175.131Z" fill="#009EA9"/>
</g>
<mask id="mask15_2004_192" style="mask-type:luminance" maskUnits="userSpaceOnUse" x="45" y="54" width="297" height="209">
<path d="M45.882 53.9999H341.438V263H45.882V53.9999Z" fill="white"/>
</mask>
<g mask="url(#mask15_2004_192)">
<path d="M240.392 156.304C232.433 156.304 225.958 149.829 225.958 141.869V107.348H234.742V141.869C234.742 144.984 237.277 147.52 240.392 147.52C243.508 147.52 246.043 144.984 246.043 141.869V107.348H254.828V141.869C254.828 149.829 248.352 156.304 240.392 156.304Z" fill="#009EA9"/>
</g>
<mask id="mask16_2004_192" style="mask-type:luminance" maskUnits="userSpaceOnUse" x="45" y="54" width="297" height="209">
<path d="M45.882 53.9999H341.438V263H45.882V53.9999Z" fill="white"/>
</mask>
<g mask="url(#mask16_2004_192)">
<path d="M240.393 160.696C248.352 160.696 254.828 167.172 254.828 175.131V209.652H246.043V175.131C246.043 172.016 243.509 169.48 240.393 169.48C237.278 169.48 234.742 172.016 234.742 175.131V209.652H225.958V175.131C225.958 167.172 232.434 160.696 240.393 160.696Z" fill="#009EA9"/>
</g>
<mask id="mask17_2004_192" style="mask-type:luminance" maskUnits="userSpaceOnUse" x="45" y="54" width="297" height="209">
<path d="M45.882 53.9999H341.438V263H45.882V53.9999Z" fill="white"/>
</mask>
<g mask="url(#mask17_2004_192)">
<path d="M221.566 121.783C221.566 113.824 215.09 107.348 207.131 107.348H172.61V116.132H207.131C210.246 116.132 212.781 118.668 212.781 121.783C212.781 124.899 210.246 127.433 207.131 127.433H172.61V127.434V136.218V136.219H207.131C210.246 136.219 212.781 138.754 212.781 141.87C212.781 144.985 210.246 147.52 207.131 147.52H172.61V156.304H207.131C215.09 156.304 221.566 149.829 221.566 141.87C221.566 137.967 220.003 134.427 217.478 131.826C220.003 129.225 221.566 125.686 221.566 121.783Z" fill="#009EA9"/>
</g>
<mask id="mask18_2004_192" style="mask-type:luminance" maskUnits="userSpaceOnUse" x="45" y="54" width="297" height="209">
<path d="M45.882 53.9999H341.438V263H45.882V53.9999Z" fill="white"/>
</mask>
<g mask="url(#mask18_2004_192)">
<path d="M207.131 160.696C203.229 160.696 199.689 162.259 197.088 164.784C194.487 162.259 190.947 160.696 187.045 160.696C179.085 160.696 172.61 167.172 172.61 175.131V209.652H181.394V175.131C181.394 172.016 183.929 169.48 187.045 169.48C190.161 169.48 192.695 172.016 192.695 175.131V209.652H192.696H201.479H201.48V175.131C201.48 172.016 204.016 169.48 207.131 169.48C210.247 169.48 212.782 172.016 212.782 175.131V209.652H221.566V175.131C221.566 167.172 215.09 160.696 207.131 160.696Z" fill="#009EA9"/>
</g>
</g>
</g>
<defs>
<clipPath id="clip0_2004_192">
<rect width="255.438" height="209" fill="white" transform="translate(-0.4375)"/>
</clipPath>
<clipPath id="clip1_2004_192">
<rect width="255.438" height="209" fill="white" transform="translate(86 54)"/>
</clipPath>
</defs>
</svg>
