<svg width="240" height="58" viewBox="0 0 240 58" fill="none" xmlns="http://www.w3.org/2000/svg">
<path d="M21.8742 23.6982H28.561C28.4268 25.8899 27.823 27.8355 26.7495 29.5352C25.691 31.2349 24.2075 32.5618 22.2991 33.516C20.4056 34.4702 18.1245 34.9473 15.4557 34.9473C13.3684 34.9473 11.4973 34.5895 9.84232 33.8738C8.18738 33.1432 6.771 32.0996 5.59316 30.7428C4.43023 29.3861 3.54312 27.7461 2.93184 25.8228C2.32055 23.8995 2.01491 21.7451 2.01491 19.3596V17.1008C2.01491 14.7153 2.32801 12.5609 2.9542 10.6376C3.5953 8.69937 4.50477 7.05189 5.68261 5.69513C6.87536 4.33838 8.2992 3.29473 9.95414 2.56417C11.6091 1.83361 13.4578 1.46833 15.5004 1.46833C18.2139 1.46833 20.5025 1.96034 22.3662 2.94436C24.2448 3.92838 25.6984 5.28513 26.7272 7.01461C27.7708 8.7441 28.397 10.7121 28.6057 12.9187H21.8965C21.822 11.6067 21.5611 10.4959 21.1138 9.58648C20.6665 8.6621 19.9881 7.96881 19.0787 7.50662C18.1841 7.02952 16.9914 6.79097 15.5004 6.79097C14.3822 6.79097 13.4057 6.9997 12.5707 7.41716C11.7358 7.83463 11.0351 8.46827 10.4685 9.31811C9.90196 10.1679 9.47704 11.2414 9.19376 12.5385C8.9254 13.8207 8.79121 15.3266 8.79121 17.0561V19.3596C8.79121 21.0443 8.91794 22.5278 9.1714 23.81C9.42486 25.0773 9.8125 26.1508 10.3343 27.0304C10.8711 27.8952 11.5569 28.5512 12.3918 28.9984C13.2417 29.4308 14.2629 29.647 15.4557 29.647C16.8572 29.647 18.0126 29.4234 18.9221 28.9761C19.8316 28.5288 20.5249 27.8653 21.002 26.9857C21.494 26.106 21.7847 25.0102 21.8742 23.6982ZM54.5906 15.1998V20.433H37.5939V15.1998H54.5906ZM39.5843 1.93798V34.5H32.8751V1.93798H39.5843ZM59.3765 1.93798V34.5H52.6896V1.93798H59.3765ZM78.764 7.50662L69.9078 34.5H62.7737L74.8726 1.93798H79.4125L78.764 7.50662ZM86.1217 34.5L77.2432 7.50662L76.5276 1.93798H81.1122L93.2782 34.5H86.1217ZM85.7192 22.3787V27.6342H68.5212V22.3787H85.7192ZM99.2696 1.93798H104.95L113.314 25.8451L121.678 1.93798H127.359L115.595 34.5H111.033L99.2696 1.93798ZM96.2057 1.93798H101.864L102.893 25.2413V34.5H96.2057V1.93798ZM124.765 1.93798H130.445V34.5H123.736V25.2413L124.765 1.93798ZM148.916 22.8931H140.619V17.6599H148.916C150.198 17.6599 151.241 17.4512 152.047 17.0337C152.852 16.6013 153.441 16.005 153.813 15.2446C154.186 14.4842 154.372 13.6269 154.372 12.6727C154.372 11.7036 154.186 10.8016 153.813 9.96666C153.441 9.13174 152.852 8.46082 152.047 7.9539C151.241 7.44698 150.198 7.19352 148.916 7.19352H142.944V34.5H136.235V1.93798H148.916C151.465 1.93798 153.649 2.40017 155.468 3.32455C157.302 4.23402 158.704 5.49386 159.673 7.10407C160.642 8.71428 161.126 10.5556 161.126 12.628C161.126 14.7302 160.642 16.5491 159.673 18.0848C158.704 19.6205 157.302 20.8058 155.468 21.6407C153.649 22.4756 151.465 22.8931 148.916 22.8931ZM172.798 1.93798V34.5H166.111V1.93798H172.798ZM205.738 17.4586V19.0017C205.738 21.4767 205.403 23.6982 204.732 25.6662C204.061 27.6342 203.114 29.3115 201.892 30.6981C200.669 32.0698 199.208 33.1209 197.508 33.8514C195.824 34.582 193.952 34.9473 191.895 34.9473C189.852 34.9473 187.981 34.582 186.282 33.8514C184.597 33.1209 183.136 32.0698 181.898 30.6981C180.661 29.3115 179.699 27.6342 179.013 25.6662C178.342 23.6982 178.007 21.4767 178.007 19.0017V17.4586C178.007 14.9688 178.342 12.7473 179.013 10.7941C179.684 8.8261 180.631 7.1488 181.854 5.76223C183.091 4.37566 184.552 3.31709 186.237 2.58653C187.937 1.85598 189.808 1.4907 191.85 1.4907C193.908 1.4907 195.779 1.85598 197.464 2.58653C199.163 3.31709 200.624 4.37566 201.847 5.76223C203.084 7.1488 204.039 8.8261 204.71 10.7941C205.395 12.7473 205.738 14.9688 205.738 17.4586ZM198.962 19.0017V17.4139C198.962 15.6844 198.805 14.1636 198.492 12.8516C198.179 11.5396 197.717 10.4363 197.106 9.54175C196.495 8.64719 195.749 7.97627 194.869 7.52898C193.99 7.06679 192.983 6.8357 191.85 6.8357C190.717 6.8357 189.711 7.06679 188.831 7.52898C187.966 7.97627 187.228 8.64719 186.617 9.54175C186.021 10.4363 185.566 11.5396 185.253 12.8516C184.94 14.1636 184.783 15.6844 184.783 17.4139V19.0017C184.783 20.7163 184.94 22.2371 185.253 23.564C185.566 24.876 186.028 25.9868 186.639 26.8962C187.251 27.7908 187.996 28.4692 188.876 28.9314C189.755 29.3935 190.762 29.6246 191.895 29.6246C193.028 29.6246 194.034 29.3935 194.914 28.9314C195.794 28.4692 196.532 27.7908 197.128 26.8962C197.725 25.9868 198.179 24.876 198.492 23.564C198.805 22.2371 198.962 20.7163 198.962 19.0017ZM236.979 1.93798V34.5H230.269L217.187 12.6727V34.5H210.477V1.93798H217.187L230.292 23.7876V1.93798H236.979Z" fill="white"/>
<path d="M9.1334 48.2393H10.0709C10.0221 48.6885 9.89349 49.0905 9.68516 49.4453C9.47682 49.8001 9.18223 50.0817 8.80137 50.29C8.42051 50.4951 7.94525 50.5977 7.37559 50.5977C6.95892 50.5977 6.57969 50.5195 6.23789 50.3633C5.89935 50.207 5.60801 49.9857 5.36387 49.6992C5.11973 49.4095 4.93093 49.0628 4.79746 48.6592C4.66725 48.2523 4.60215 47.7998 4.60215 47.3018V46.5938C4.60215 46.0957 4.66725 45.6449 4.79746 45.2412C4.93093 44.8343 5.12136 44.486 5.36875 44.1963C5.6194 43.9066 5.92051 43.6836 6.27207 43.5273C6.62363 43.3711 7.01914 43.293 7.4586 43.293C7.9957 43.293 8.44981 43.3939 8.8209 43.5957C9.19199 43.7975 9.48008 44.0775 9.68516 44.4355C9.89349 44.7904 10.0221 45.2021 10.0709 45.6709H9.1334C9.08783 45.3389 9.00319 45.054 8.87949 44.8164C8.7558 44.5755 8.58001 44.39 8.35215 44.2598C8.12429 44.1296 7.82643 44.0645 7.4586 44.0645C7.14284 44.0645 6.86452 44.1247 6.62363 44.2451C6.386 44.3656 6.18581 44.5365 6.02305 44.7578C5.86354 44.9792 5.7431 45.2445 5.66172 45.5537C5.58034 45.863 5.53965 46.2064 5.53965 46.584V47.3018C5.53965 47.6501 5.57546 47.9772 5.64707 48.2832C5.72194 48.5892 5.83425 48.8577 5.98399 49.0889C6.13373 49.32 6.32416 49.5023 6.55527 49.6357C6.78639 49.766 7.05983 49.8311 7.37559 49.8311C7.77598 49.8311 8.09499 49.7676 8.33262 49.6406C8.57025 49.5137 8.74929 49.3314 8.86973 49.0938C8.99343 48.8561 9.08132 48.5713 9.1334 48.2393ZM12.0717 43V50.5H11.1684V43H12.0717ZM11.8568 47.6582L11.4809 47.6436C11.4841 47.2822 11.5378 46.9486 11.642 46.6426C11.7462 46.3333 11.8926 46.0648 12.0814 45.8369C12.2702 45.609 12.4949 45.4333 12.7553 45.3096C13.0189 45.1826 13.3103 45.1191 13.6293 45.1191C13.8897 45.1191 14.1241 45.1549 14.3324 45.2266C14.5408 45.2949 14.7182 45.4056 14.8646 45.5586C15.0144 45.7116 15.1283 45.9102 15.2064 46.1543C15.2846 46.3952 15.3236 46.6898 15.3236 47.0381V50.5H14.4154V47.0283C14.4154 46.7516 14.3747 46.5303 14.2934 46.3643C14.212 46.195 14.0932 46.0729 13.9369 45.998C13.7807 45.9199 13.5886 45.8809 13.3607 45.8809C13.1361 45.8809 12.9311 45.9281 12.7455 46.0225C12.5632 46.1169 12.4053 46.2471 12.2719 46.4131C12.1417 46.5791 12.0391 46.7695 11.9643 46.9844C11.8926 47.196 11.8568 47.4206 11.8568 47.6582ZM19.7414 49.5967V46.877C19.7414 46.6686 19.6991 46.488 19.6145 46.335C19.5331 46.1787 19.4094 46.0583 19.2434 45.9736C19.0773 45.889 18.8723 45.8467 18.6281 45.8467C18.4003 45.8467 18.2001 45.8857 18.0275 45.9639C17.8583 46.042 17.7248 46.1445 17.6271 46.2715C17.5327 46.3984 17.4855 46.5352 17.4855 46.6816H16.5822C16.5822 46.4928 16.6311 46.3057 16.7287 46.1201C16.8264 45.9346 16.9663 45.7669 17.1486 45.6172C17.3342 45.4642 17.5555 45.3438 17.8127 45.2559C18.0731 45.1647 18.3628 45.1191 18.6818 45.1191C19.066 45.1191 19.4045 45.1842 19.6975 45.3145C19.9937 45.4447 20.2248 45.6416 20.3908 45.9053C20.5601 46.1657 20.6447 46.4928 20.6447 46.8867V49.3477C20.6447 49.5234 20.6594 49.7106 20.6887 49.9092C20.7212 50.1077 20.7684 50.2786 20.8303 50.4219V50.5H19.8879C19.8423 50.3958 19.8065 50.2575 19.7805 50.085C19.7544 49.9092 19.7414 49.7464 19.7414 49.5967ZM19.8977 47.2969L19.9074 47.9316H18.9943C18.7372 47.9316 18.5077 47.9528 18.3059 47.9951C18.104 48.0342 17.9348 48.0944 17.798 48.1758C17.6613 48.2572 17.5572 48.3597 17.4855 48.4834C17.4139 48.6038 17.3781 48.7454 17.3781 48.9082C17.3781 49.0742 17.4156 49.2256 17.4904 49.3623C17.5653 49.499 17.6776 49.6081 17.8273 49.6895C17.9803 49.7676 18.1675 49.8066 18.3889 49.8066C18.6656 49.8066 18.9097 49.748 19.1213 49.6309C19.3329 49.5137 19.5005 49.3704 19.6242 49.2012C19.7512 49.0319 19.8195 48.8675 19.8293 48.708L20.215 49.1426C20.1923 49.2793 20.1304 49.4307 20.0295 49.5967C19.9286 49.7627 19.7935 49.9222 19.6242 50.0752C19.4582 50.2249 19.2596 50.3503 19.0285 50.4512C18.8007 50.5488 18.5435 50.5977 18.257 50.5977C17.899 50.5977 17.5848 50.5277 17.3146 50.3877C17.0477 50.2477 16.8394 50.0605 16.6896 49.8262C16.5432 49.5885 16.4699 49.3232 16.4699 49.0303C16.4699 48.7471 16.5253 48.498 16.6359 48.2832C16.7466 48.0651 16.9061 47.8844 17.1145 47.7412C17.3228 47.5947 17.5734 47.484 17.8664 47.4092C18.1594 47.3343 18.4865 47.2969 18.8479 47.2969H19.8977ZM22.9189 46.3447V50.5H22.0156V45.2168H22.8701L22.9189 46.3447ZM22.7041 47.6582L22.3281 47.6436C22.3314 47.2822 22.3851 46.9486 22.4893 46.6426C22.5934 46.3333 22.7399 46.0648 22.9287 45.8369C23.1175 45.609 23.3421 45.4333 23.6025 45.3096C23.8662 45.1826 24.1576 45.1191 24.4766 45.1191C24.737 45.1191 24.9714 45.1549 25.1797 45.2266C25.388 45.2949 25.5654 45.4056 25.7119 45.5586C25.8617 45.7116 25.9756 45.9102 26.0537 46.1543C26.1318 46.3952 26.1709 46.6898 26.1709 47.0381V50.5H25.2627V47.0283C25.2627 46.7516 25.222 46.5303 25.1406 46.3643C25.0592 46.195 24.9404 46.0729 24.7842 45.998C24.6279 45.9199 24.4359 45.8809 24.208 45.8809C23.9834 45.8809 23.7783 45.9281 23.5928 46.0225C23.4105 46.1169 23.2526 46.2471 23.1191 46.4131C22.9889 46.5791 22.8864 46.7695 22.8115 46.9844C22.7399 47.196 22.7041 47.4206 22.7041 47.6582ZM30.9158 45.2168H31.7361V50.3877C31.7361 50.8532 31.6417 51.2503 31.4529 51.5791C31.2641 51.9079 31.0005 52.1569 30.6619 52.3262C30.3266 52.4987 29.9393 52.585 29.4998 52.585C29.3175 52.585 29.1027 52.5557 28.8553 52.4971C28.6111 52.4417 28.3702 52.3457 28.1326 52.209C27.8982 52.0755 27.7013 51.8949 27.5418 51.667L28.0154 51.1299C28.2368 51.3968 28.4679 51.5824 28.7088 51.6865C28.9529 51.7907 29.1938 51.8428 29.4314 51.8428C29.7179 51.8428 29.9653 51.7891 30.1736 51.6816C30.382 51.5742 30.5431 51.4147 30.657 51.2031C30.7742 50.9948 30.8328 50.7376 30.8328 50.4316V46.3789L30.9158 45.2168ZM27.2781 47.917V47.8145C27.2781 47.4108 27.3253 47.0446 27.4197 46.7158C27.5174 46.3838 27.6557 46.099 27.8348 45.8613C28.0171 45.6237 28.2368 45.4414 28.4939 45.3145C28.7511 45.1842 29.0408 45.1191 29.3631 45.1191C29.6951 45.1191 29.9848 45.1777 30.2322 45.2949C30.4829 45.4089 30.6945 45.5765 30.867 45.7979C31.0428 46.016 31.1811 46.2796 31.282 46.5889C31.3829 46.8981 31.4529 47.248 31.492 47.6387V48.0879C31.4562 48.4753 31.3862 48.8236 31.282 49.1328C31.1811 49.4421 31.0428 49.7057 30.867 49.9238C30.6945 50.1419 30.4829 50.3096 30.2322 50.4268C29.9816 50.5407 29.6886 50.5977 29.3533 50.5977C29.0376 50.5977 28.7511 50.5309 28.4939 50.3975C28.24 50.264 28.0219 50.0768 27.8396 49.8359C27.6574 49.5951 27.5174 49.3118 27.4197 48.9863C27.3253 48.6576 27.2781 48.3011 27.2781 47.917ZM28.1814 47.8145V47.917C28.1814 48.1807 28.2075 48.4281 28.2596 48.6592C28.3149 48.8903 28.3979 49.0938 28.5086 49.2695C28.6225 49.4453 28.7674 49.5837 28.9432 49.6846C29.1189 49.7822 29.3289 49.8311 29.573 49.8311C29.8725 49.8311 30.1199 49.7676 30.3152 49.6406C30.5105 49.5137 30.6652 49.346 30.7791 49.1377C30.8963 48.9294 30.9874 48.7031 31.0525 48.459V47.2822C31.0167 47.1032 30.9614 46.9307 30.8865 46.7646C30.8149 46.5954 30.7205 46.4456 30.6033 46.3154C30.4894 46.182 30.3478 46.0762 30.1785 45.998C30.0092 45.9199 29.8107 45.8809 29.5828 45.8809C29.3354 45.8809 29.1222 45.9329 28.9432 46.0371C28.7674 46.138 28.6225 46.278 28.5086 46.457C28.3979 46.6328 28.3149 46.8379 28.2596 47.0723C28.2075 47.3034 28.1814 47.5508 28.1814 47.8145ZM35.2506 50.5977C34.8827 50.5977 34.5491 50.5358 34.2496 50.4121C33.9534 50.2852 33.6979 50.1077 33.483 49.8799C33.2714 49.652 33.1087 49.3818 32.9947 49.0693C32.8808 48.7568 32.8238 48.415 32.8238 48.0439V47.8389C32.8238 47.4092 32.8873 47.0267 33.0143 46.6914C33.1412 46.3529 33.3137 46.0664 33.5318 45.832C33.7499 45.5977 33.9973 45.4202 34.274 45.2998C34.5507 45.1794 34.8372 45.1191 35.1334 45.1191C35.511 45.1191 35.8365 45.1842 36.11 45.3145C36.3867 45.4447 36.6129 45.627 36.7887 45.8613C36.9645 46.0924 37.0947 46.3659 37.1793 46.6816C37.2639 46.9941 37.3063 47.3359 37.3063 47.707V48.1123H33.3609V47.375H36.4029V47.3066C36.3899 47.0723 36.3411 46.8444 36.2564 46.623C36.1751 46.4017 36.0449 46.2194 35.8658 46.0762C35.6868 45.9329 35.4426 45.8613 35.1334 45.8613C34.9283 45.8613 34.7395 45.9053 34.567 45.9932C34.3945 46.0778 34.2464 46.2048 34.1227 46.374C33.999 46.5433 33.9029 46.75 33.8346 46.9941C33.7662 47.2383 33.732 47.5199 33.732 47.8389V48.0439C33.732 48.2946 33.7662 48.5306 33.8346 48.752C33.9062 48.9701 34.0087 49.1621 34.1422 49.3281C34.2789 49.4941 34.4433 49.6243 34.6354 49.7188C34.8307 49.8132 35.052 49.8604 35.2994 49.8604C35.6184 49.8604 35.8886 49.7952 36.11 49.665C36.3313 49.5348 36.525 49.3607 36.691 49.1426L37.2379 49.5771C37.124 49.7497 36.9791 49.9141 36.8033 50.0703C36.6275 50.2266 36.4111 50.3535 36.1539 50.4512C35.9 50.5488 35.5989 50.5977 35.2506 50.5977ZM43.51 44.0205L41.1564 50.5H40.1945L42.9045 43.3906H43.5246L43.51 44.0205ZM45.4826 50.5L43.1242 44.0205L43.1096 43.3906H43.7297L46.4494 50.5H45.4826ZM45.3605 47.8682V48.6396H41.3664V47.8682H45.3605ZM50.6377 45.2168H51.458V50.3877C51.458 50.8532 51.3636 51.2503 51.1748 51.5791C50.986 51.9079 50.7223 52.1569 50.3838 52.3262C50.0485 52.4987 49.6611 52.585 49.2217 52.585C49.0394 52.585 48.8245 52.5557 48.5771 52.4971C48.333 52.4417 48.0921 52.3457 47.8545 52.209C47.6201 52.0755 47.4232 51.8949 47.2637 51.667L47.7373 51.1299C47.9587 51.3968 48.1898 51.5824 48.4307 51.6865C48.6748 51.7907 48.9157 51.8428 49.1533 51.8428C49.4398 51.8428 49.6872 51.7891 49.8955 51.6816C50.1038 51.5742 50.265 51.4147 50.3789 51.2031C50.4961 50.9948 50.5547 50.7376 50.5547 50.4316V46.3789L50.6377 45.2168ZM47 47.917V47.8145C47 47.4108 47.0472 47.0446 47.1416 46.7158C47.2393 46.3838 47.3776 46.099 47.5566 45.8613C47.7389 45.6237 47.9587 45.4414 48.2158 45.3145C48.473 45.1842 48.7627 45.1191 49.085 45.1191C49.417 45.1191 49.7067 45.1777 49.9541 45.2949C50.2048 45.4089 50.4163 45.5765 50.5889 45.7979C50.7646 46.016 50.903 46.2796 51.0039 46.5889C51.1048 46.8981 51.1748 47.248 51.2139 47.6387V48.0879C51.1781 48.4753 51.1081 48.8236 51.0039 49.1328C50.903 49.4421 50.7646 49.7057 50.5889 49.9238C50.4163 50.1419 50.2048 50.3096 49.9541 50.4268C49.7035 50.5407 49.4105 50.5977 49.0752 50.5977C48.7594 50.5977 48.473 50.5309 48.2158 50.3975C47.9619 50.264 47.7438 50.0768 47.5615 49.8359C47.3792 49.5951 47.2393 49.3118 47.1416 48.9863C47.0472 48.6576 47 48.3011 47 47.917ZM47.9033 47.8145V47.917C47.9033 48.1807 47.9294 48.4281 47.9814 48.6592C48.0368 48.8903 48.1198 49.0938 48.2305 49.2695C48.3444 49.4453 48.4893 49.5837 48.665 49.6846C48.8408 49.7822 49.0508 49.8311 49.2949 49.8311C49.5944 49.8311 49.8418 49.7676 50.0371 49.6406C50.2324 49.5137 50.387 49.346 50.501 49.1377C50.6182 48.9294 50.7093 48.7031 50.7744 48.459V47.2822C50.7386 47.1032 50.6833 46.9307 50.6084 46.7646C50.5368 46.5954 50.4424 46.4456 50.3252 46.3154C50.2113 46.182 50.0697 46.0762 49.9004 45.998C49.7311 45.9199 49.5326 45.8809 49.3047 45.8809C49.0573 45.8809 48.8441 45.9329 48.665 46.0371C48.4893 46.138 48.3444 46.278 48.2305 46.457C48.1198 46.6328 48.0368 46.8379 47.9814 47.0723C47.9294 47.3034 47.9033 47.5508 47.9033 47.8145ZM54.9725 50.5977C54.6046 50.5977 54.271 50.5358 53.9715 50.4121C53.6753 50.2852 53.4197 50.1077 53.2049 49.8799C52.9933 49.652 52.8305 49.3818 52.7166 49.0693C52.6027 48.7568 52.5457 48.415 52.5457 48.0439V47.8389C52.5457 47.4092 52.6092 47.0267 52.7361 46.6914C52.8631 46.3529 53.0356 46.0664 53.2537 45.832C53.4718 45.5977 53.7192 45.4202 53.9959 45.2998C54.2726 45.1794 54.5591 45.1191 54.8553 45.1191C55.2329 45.1191 55.5584 45.1842 55.8318 45.3145C56.1085 45.4447 56.3348 45.627 56.5105 45.8613C56.6863 46.0924 56.8165 46.3659 56.9012 46.6816C56.9858 46.9941 57.0281 47.3359 57.0281 47.707V48.1123H53.0828V47.375H56.1248V47.3066C56.1118 47.0723 56.063 46.8444 55.9783 46.623C55.8969 46.4017 55.7667 46.2194 55.5877 46.0762C55.4087 45.9329 55.1645 45.8613 54.8553 45.8613C54.6502 45.8613 54.4614 45.9053 54.2889 45.9932C54.1163 46.0778 53.9682 46.2048 53.8445 46.374C53.7208 46.5433 53.6248 46.75 53.5564 46.9941C53.4881 47.2383 53.4539 47.5199 53.4539 47.8389V48.0439C53.4539 48.2946 53.4881 48.5306 53.5564 48.752C53.6281 48.9701 53.7306 49.1621 53.8641 49.3281C54.0008 49.4941 54.1652 49.6243 54.3572 49.7188C54.5525 49.8132 54.7739 49.8604 55.0213 49.8604C55.3403 49.8604 55.6105 49.7952 55.8318 49.665C56.0532 49.5348 56.2469 49.3607 56.4129 49.1426L56.9598 49.5771C56.8458 49.7497 56.701 49.9141 56.5252 50.0703C56.3494 50.2266 56.1329 50.3535 55.8758 50.4512C55.6219 50.5488 55.3208 50.5977 54.9725 50.5977ZM58.9361 46.3447V50.5H58.0328V45.2168H58.8873L58.9361 46.3447ZM58.7213 47.6582L58.3453 47.6436C58.3486 47.2822 58.4023 46.9486 58.5064 46.6426C58.6106 46.3333 58.7571 46.0648 58.9459 45.8369C59.1347 45.609 59.3593 45.4333 59.6197 45.3096C59.8834 45.1826 60.1747 45.1191 60.4938 45.1191C60.7542 45.1191 60.9885 45.1549 61.1969 45.2266C61.4052 45.2949 61.5826 45.4056 61.7291 45.5586C61.8788 45.7116 61.9928 45.9102 62.0709 46.1543C62.149 46.3952 62.1881 46.6898 62.1881 47.0381V50.5H61.2799V47.0283C61.2799 46.7516 61.2392 46.5303 61.1578 46.3643C61.0764 46.195 60.9576 46.0729 60.8014 45.998C60.6451 45.9199 60.4531 45.8809 60.2252 45.8809C60.0006 45.8809 59.7955 45.9281 59.61 46.0225C59.4277 46.1169 59.2698 46.2471 59.1363 46.4131C59.0061 46.5791 58.9036 46.7695 58.8287 46.9844C58.7571 47.196 58.7213 47.4206 58.7213 47.6582ZM65.7221 45.2168V45.9102H62.8656V45.2168H65.7221ZM63.8324 43.9326H64.7357V49.1914C64.7357 49.3704 64.7634 49.5055 64.8188 49.5967C64.8741 49.6878 64.9457 49.748 65.0336 49.7773C65.1215 49.8066 65.2159 49.8213 65.3168 49.8213C65.3917 49.8213 65.4698 49.8148 65.5512 49.8018C65.6358 49.7855 65.6993 49.7725 65.7416 49.7627L65.7465 50.5C65.6749 50.5228 65.5805 50.5439 65.4633 50.5635C65.3494 50.5863 65.211 50.5977 65.0482 50.5977C64.8269 50.5977 64.6234 50.5537 64.4379 50.4658C64.2523 50.3779 64.1042 50.2314 63.9936 50.0264C63.8861 49.818 63.8324 49.5381 63.8324 49.1865V43.9326ZM69.5967 43.3906H70.5098L72.8389 49.1865L75.1631 43.3906H76.0811L73.1904 50.5H72.4775L69.5967 43.3906ZM69.2988 43.3906H70.1045L70.2363 47.7266V50.5H69.2988V43.3906ZM75.5684 43.3906H76.374V50.5H75.4365V47.7266L75.5684 43.3906ZM77.6033 47.917V47.8047C77.6033 47.4238 77.6587 47.0706 77.7693 46.7451C77.88 46.4163 78.0395 46.1315 78.2479 45.8906C78.4562 45.6465 78.7085 45.4577 79.0047 45.3242C79.3009 45.1875 79.6329 45.1191 80.0008 45.1191C80.3719 45.1191 80.7055 45.1875 81.0018 45.3242C81.3012 45.4577 81.5551 45.6465 81.7635 45.8906C81.9751 46.1315 82.1362 46.4163 82.2469 46.7451C82.3576 47.0706 82.4129 47.4238 82.4129 47.8047V47.917C82.4129 48.2979 82.3576 48.651 82.2469 48.9766C82.1362 49.3021 81.9751 49.5869 81.7635 49.8311C81.5551 50.0719 81.3029 50.2607 81.0066 50.3975C80.7137 50.5309 80.3816 50.5977 80.0106 50.5977C79.6395 50.5977 79.3058 50.5309 79.0096 50.3975C78.7134 50.2607 78.4594 50.0719 78.2479 49.8311C78.0395 49.5869 77.88 49.3021 77.7693 48.9766C77.6587 48.651 77.6033 48.2979 77.6033 47.917ZM78.5066 47.8047V47.917C78.5066 48.1807 78.5376 48.4297 78.5994 48.6641C78.6613 48.8952 78.754 49.1003 78.8777 49.2793C79.0047 49.4583 79.1626 49.5999 79.3514 49.7041C79.5402 49.805 79.7599 49.8555 80.0106 49.8555C80.2579 49.8555 80.4744 49.805 80.66 49.7041C80.8488 49.5999 81.005 49.4583 81.1287 49.2793C81.2524 49.1003 81.3452 48.8952 81.407 48.6641C81.4721 48.4297 81.5047 48.1807 81.5047 47.917V47.8047C81.5047 47.5443 81.4721 47.2985 81.407 47.0674C81.3452 46.833 81.2508 46.6263 81.1238 46.4473C81.0001 46.265 80.8439 46.1217 80.6551 46.0176C80.4695 45.9134 80.2514 45.8613 80.0008 45.8613C79.7534 45.8613 79.5353 45.9134 79.3465 46.0176C79.1609 46.1217 79.0047 46.265 78.8777 46.4473C78.754 46.6263 78.6613 46.833 78.5994 47.0674C78.5376 47.2985 78.5066 47.5443 78.5066 47.8047ZM84.399 46.3447V50.5H83.4957V45.2168H84.3502L84.399 46.3447ZM84.1842 47.6582L83.8082 47.6436C83.8115 47.2822 83.8652 46.9486 83.9693 46.6426C84.0735 46.3333 84.22 46.0648 84.4088 45.8369C84.5976 45.609 84.8222 45.4333 85.0826 45.3096C85.3463 45.1826 85.6376 45.1191 85.9566 45.1191C86.2171 45.1191 86.4514 45.1549 86.6598 45.2266C86.8681 45.2949 87.0455 45.4056 87.192 45.5586C87.3417 45.7116 87.4557 45.9102 87.5338 46.1543C87.6119 46.3952 87.651 46.6898 87.651 47.0381V50.5H86.7428V47.0283C86.7428 46.7516 86.7021 46.5303 86.6207 46.3643C86.5393 46.195 86.4205 46.0729 86.2643 45.998C86.108 45.9199 85.916 45.8809 85.6881 45.8809C85.4635 45.8809 85.2584 45.9281 85.0729 46.0225C84.8906 46.1169 84.7327 46.2471 84.5992 46.4131C84.469 46.5791 84.3665 46.7695 84.2916 46.9844C84.22 47.196 84.1842 47.4206 84.1842 47.6582ZM89.9545 45.2168V50.5H89.0463V45.2168H89.9545ZM88.9779 43.8154C88.9779 43.6689 89.0219 43.5452 89.1098 43.4443C89.2009 43.3434 89.3344 43.293 89.5102 43.293C89.6827 43.293 89.8145 43.3434 89.9057 43.4443C90.0001 43.5452 90.0473 43.6689 90.0473 43.8154C90.0473 43.9554 90.0001 44.0758 89.9057 44.1768C89.8145 44.2744 89.6827 44.3232 89.5102 44.3232C89.3344 44.3232 89.2009 44.2744 89.1098 44.1768C89.0219 44.0758 88.9779 43.9554 88.9779 43.8154ZM93.5666 45.2168V45.9102H90.7102V45.2168H93.5666ZM91.677 43.9326H92.5803V49.1914C92.5803 49.3704 92.6079 49.5055 92.6633 49.5967C92.7186 49.6878 92.7902 49.748 92.8781 49.7773C92.966 49.8066 93.0604 49.8213 93.1613 49.8213C93.2362 49.8213 93.3143 49.8148 93.3957 49.8018C93.4803 49.7855 93.5438 49.7725 93.5861 49.7627L93.591 50.5C93.5194 50.5228 93.425 50.5439 93.3078 50.5635C93.1939 50.5863 93.0555 50.5977 92.8928 50.5977C92.6714 50.5977 92.468 50.5537 92.2824 50.4658C92.0969 50.3779 91.9488 50.2314 91.8381 50.0264C91.7307 49.818 91.677 49.5381 91.677 49.1865V43.9326ZM94.2393 47.917V47.8047C94.2393 47.4238 94.2946 47.0706 94.4053 46.7451C94.516 46.4163 94.6755 46.1315 94.8838 45.8906C95.0921 45.6465 95.3444 45.4577 95.6406 45.3242C95.9368 45.1875 96.2689 45.1191 96.6367 45.1191C97.0078 45.1191 97.3415 45.1875 97.6377 45.3242C97.9372 45.4577 98.1911 45.6465 98.3994 45.8906C98.611 46.1315 98.7721 46.4163 98.8828 46.7451C98.9935 47.0706 99.0488 47.4238 99.0488 47.8047V47.917C99.0488 48.2979 98.9935 48.651 98.8828 48.9766C98.7721 49.3021 98.611 49.5869 98.3994 49.8311C98.1911 50.0719 97.9388 50.2607 97.6426 50.3975C97.3496 50.5309 97.0176 50.5977 96.6465 50.5977C96.2754 50.5977 95.9417 50.5309 95.6455 50.3975C95.3493 50.2607 95.0954 50.0719 94.8838 49.8311C94.6755 49.5869 94.516 49.3021 94.4053 48.9766C94.2946 48.651 94.2393 48.2979 94.2393 47.917ZM95.1426 47.8047V47.917C95.1426 48.1807 95.1735 48.4297 95.2354 48.6641C95.2972 48.8952 95.39 49.1003 95.5137 49.2793C95.6406 49.4583 95.7985 49.5999 95.9873 49.7041C96.1761 49.805 96.3958 49.8555 96.6465 49.8555C96.8939 49.8555 97.1104 49.805 97.2959 49.7041C97.4847 49.5999 97.641 49.4583 97.7646 49.2793C97.8883 49.1003 97.9811 48.8952 98.043 48.6641C98.1081 48.4297 98.1406 48.1807 98.1406 47.917V47.8047C98.1406 47.5443 98.1081 47.2985 98.043 47.0674C97.9811 46.833 97.8867 46.6263 97.7598 46.4473C97.6361 46.265 97.4798 46.1217 97.291 46.0176C97.1055 45.9134 96.8874 45.8613 96.6367 45.8613C96.3893 45.8613 96.1712 45.9134 95.9824 46.0176C95.7969 46.1217 95.6406 46.265 95.5137 46.4473C95.39 46.6263 95.2972 46.833 95.2354 47.0674C95.1735 47.2985 95.1426 47.5443 95.1426 47.8047ZM101.035 46.0469V50.5H100.132V45.2168H101.011L101.035 46.0469ZM102.685 45.1875L102.68 46.0273C102.606 46.0111 102.534 46.0013 102.466 45.998C102.401 45.9915 102.326 45.9883 102.241 45.9883C102.033 45.9883 101.849 46.0208 101.689 46.0859C101.53 46.151 101.395 46.2422 101.284 46.3594C101.173 46.4766 101.085 46.6165 101.02 46.7793C100.958 46.9388 100.918 47.1146 100.898 47.3066L100.644 47.4531C100.644 47.1341 100.675 46.8346 100.737 46.5547C100.802 46.2747 100.902 46.0273 101.035 45.8125C101.168 45.5944 101.338 45.4251 101.543 45.3047C101.751 45.181 101.999 45.1191 102.285 45.1191C102.35 45.1191 102.425 45.1273 102.51 45.1436C102.594 45.1566 102.653 45.1712 102.685 45.1875ZM104.452 45.2168V50.5H103.544V45.2168H104.452ZM103.475 43.8154C103.475 43.6689 103.519 43.5452 103.607 43.4443C103.698 43.3434 103.832 43.293 104.007 43.293C104.18 43.293 104.312 43.3434 104.403 43.4443C104.497 43.5452 104.545 43.6689 104.545 43.8154C104.545 43.9554 104.497 44.0758 104.403 44.1768C104.312 44.2744 104.18 44.3232 104.007 44.3232C103.832 44.3232 103.698 44.2744 103.607 44.1768C103.519 44.0758 103.475 43.9554 103.475 43.8154ZM106.755 46.3447V50.5H105.852V45.2168H106.706L106.755 46.3447ZM106.54 47.6582L106.164 47.6436C106.168 47.2822 106.221 46.9486 106.326 46.6426C106.43 46.3333 106.576 46.0648 106.765 45.8369C106.954 45.609 107.178 45.4333 107.439 45.3096C107.703 45.1826 107.994 45.1191 108.313 45.1191C108.573 45.1191 108.808 45.1549 109.016 45.2266C109.224 45.2949 109.402 45.4056 109.548 45.5586C109.698 45.7116 109.812 45.9102 109.89 46.1543C109.968 46.3952 110.007 46.6898 110.007 47.0381V50.5H109.099V47.0283C109.099 46.7516 109.058 46.5303 108.977 46.3643C108.896 46.195 108.777 46.0729 108.621 45.998C108.464 45.9199 108.272 45.8809 108.044 45.8809C107.82 45.8809 107.615 45.9281 107.429 46.0225C107.247 46.1169 107.089 46.2471 106.955 46.4131C106.825 46.5791 106.723 46.7695 106.648 46.9844C106.576 47.196 106.54 47.4206 106.54 47.6582ZM114.752 45.2168H115.572V50.3877C115.572 50.8532 115.478 51.2503 115.289 51.5791C115.1 51.9079 114.837 52.1569 114.498 52.3262C114.163 52.4987 113.776 52.585 113.336 52.585C113.154 52.585 112.939 52.5557 112.692 52.4971C112.447 52.4417 112.207 52.3457 111.969 52.209C111.735 52.0755 111.538 51.8949 111.378 51.667L111.852 51.1299C112.073 51.3968 112.304 51.5824 112.545 51.6865C112.789 51.7907 113.03 51.8428 113.268 51.8428C113.554 51.8428 113.802 51.7891 114.01 51.6816C114.218 51.5742 114.379 51.4147 114.493 51.2031C114.611 50.9948 114.669 50.7376 114.669 50.4316V46.3789L114.752 45.2168ZM111.114 47.917V47.8145C111.114 47.4108 111.162 47.0446 111.256 46.7158C111.354 46.3838 111.492 46.099 111.671 45.8613C111.853 45.6237 112.073 45.4414 112.33 45.3145C112.587 45.1842 112.877 45.1191 113.199 45.1191C113.531 45.1191 113.821 45.1777 114.069 45.2949C114.319 45.4089 114.531 45.5765 114.703 45.7979C114.879 46.016 115.017 46.2796 115.118 46.5889C115.219 46.8981 115.289 47.248 115.328 47.6387V48.0879C115.293 48.4753 115.223 48.8236 115.118 49.1328C115.017 49.4421 114.879 49.7057 114.703 49.9238C114.531 50.1419 114.319 50.3096 114.069 50.4268C113.818 50.5407 113.525 50.5977 113.19 50.5977C112.874 50.5977 112.587 50.5309 112.33 50.3975C112.076 50.264 111.858 50.0768 111.676 49.8359C111.494 49.5951 111.354 49.3118 111.256 48.9863C111.162 48.6576 111.114 48.3011 111.114 47.917ZM112.018 47.8145V47.917C112.018 48.1807 112.044 48.4281 112.096 48.6592C112.151 48.8903 112.234 49.0938 112.345 49.2695C112.459 49.4453 112.604 49.5837 112.779 49.6846C112.955 49.7822 113.165 49.8311 113.409 49.8311C113.709 49.8311 113.956 49.7676 114.152 49.6406C114.347 49.5137 114.502 49.346 114.615 49.1377C114.733 48.9294 114.824 48.7031 114.889 48.459V47.2822C114.853 47.1032 114.798 46.9307 114.723 46.7646C114.651 46.5954 114.557 46.4456 114.44 46.3154C114.326 46.182 114.184 46.0762 114.015 45.998C113.846 45.9199 113.647 45.8809 113.419 45.8809C113.172 45.8809 112.959 45.9329 112.779 46.0371C112.604 46.138 112.459 46.278 112.345 46.457C112.234 46.6328 112.151 46.8379 112.096 47.0723C112.044 47.3034 112.018 47.5508 112.018 47.8145ZM122.084 47.7119H120.184V46.9453H122.084C122.452 46.9453 122.749 46.8867 122.977 46.7695C123.205 46.6523 123.371 46.4896 123.475 46.2812C123.583 46.0729 123.637 45.8353 123.637 45.5684C123.637 45.3242 123.583 45.0947 123.475 44.8799C123.371 44.665 123.205 44.4925 122.977 44.3623C122.749 44.2288 122.452 44.1621 122.084 44.1621H120.404V50.5H119.462V43.3906H122.084C122.621 43.3906 123.075 43.4834 123.446 43.6689C123.817 43.8545 124.099 44.1117 124.291 44.4404C124.483 44.766 124.579 45.1387 124.579 45.5586C124.579 46.0143 124.483 46.4033 124.291 46.7256C124.099 47.0479 123.817 47.2936 123.446 47.4629C123.075 47.6289 122.621 47.7119 122.084 47.7119ZM126.565 43V50.5H125.657V43H126.565ZM131.08 49.5967V46.877C131.08 46.6686 131.038 46.488 130.954 46.335C130.872 46.1787 130.748 46.0583 130.582 45.9736C130.416 45.889 130.211 45.8467 129.967 45.8467C129.739 45.8467 129.539 45.8857 129.367 45.9639C129.197 46.042 129.064 46.1445 128.966 46.2715C128.872 46.3984 128.825 46.5352 128.825 46.6816H127.921C127.921 46.4928 127.97 46.3057 128.068 46.1201C128.165 45.9346 128.305 45.7669 128.488 45.6172C128.673 45.4642 128.895 45.3438 129.152 45.2559C129.412 45.1647 129.702 45.1191 130.021 45.1191C130.405 45.1191 130.744 45.1842 131.037 45.3145C131.333 45.4447 131.564 45.6416 131.73 45.9053C131.899 46.1657 131.984 46.4928 131.984 46.8867V49.3477C131.984 49.5234 131.998 49.7106 132.028 49.9092C132.06 50.1077 132.107 50.2786 132.169 50.4219V50.5H131.227C131.181 50.3958 131.146 50.2575 131.12 50.085C131.093 49.9092 131.08 49.7464 131.08 49.5967ZM131.237 47.2969L131.246 47.9316H130.333C130.076 47.9316 129.847 47.9528 129.645 47.9951C129.443 48.0342 129.274 48.0944 129.137 48.1758C129 48.2572 128.896 48.3597 128.825 48.4834C128.753 48.6038 128.717 48.7454 128.717 48.9082C128.717 49.0742 128.755 49.2256 128.829 49.3623C128.904 49.499 129.017 49.6081 129.166 49.6895C129.319 49.7676 129.507 49.8066 129.728 49.8066C130.005 49.8066 130.249 49.748 130.46 49.6309C130.672 49.5137 130.84 49.3704 130.963 49.2012C131.09 49.0319 131.159 48.8675 131.168 48.708L131.554 49.1426C131.531 49.2793 131.469 49.4307 131.369 49.5967C131.268 49.7627 131.133 49.9222 130.963 50.0752C130.797 50.2249 130.599 50.3503 130.368 50.4512C130.14 50.5488 129.883 50.5977 129.596 50.5977C129.238 50.5977 128.924 50.5277 128.654 50.3877C128.387 50.2477 128.178 50.0605 128.029 49.8262C127.882 49.5885 127.809 49.3232 127.809 49.0303C127.809 48.7471 127.864 48.498 127.975 48.2832C128.086 48.0651 128.245 47.8844 128.454 47.7412C128.662 47.5947 128.912 47.484 129.205 47.4092C129.498 47.3343 129.826 47.2969 130.187 47.2969H131.237ZM135.567 45.2168V45.9102H132.71V45.2168H135.567ZM133.677 43.9326H134.58V49.1914C134.58 49.3704 134.608 49.5055 134.663 49.5967C134.719 49.6878 134.79 49.748 134.878 49.7773C134.966 49.8066 135.06 49.8213 135.161 49.8213C135.236 49.8213 135.314 49.8148 135.396 49.8018C135.48 49.7855 135.544 49.7725 135.586 49.7627L135.591 50.5C135.519 50.5228 135.425 50.5439 135.308 50.5635C135.194 50.5863 135.056 50.5977 134.893 50.5977C134.671 50.5977 134.468 50.5537 134.282 50.4658C134.097 50.3779 133.949 50.2314 133.838 50.0264C133.731 49.818 133.677 49.5381 133.677 49.1865V43.9326ZM137.924 50.5H137.021V44.6602C137.021 44.2793 137.089 43.9587 137.226 43.6982C137.366 43.4346 137.566 43.236 137.826 43.1025C138.087 42.9658 138.396 42.8975 138.754 42.8975C138.858 42.8975 138.962 42.904 139.066 42.917C139.174 42.93 139.278 42.9495 139.379 42.9756L139.33 43.7129C139.262 43.6966 139.184 43.6852 139.096 43.6787C139.011 43.6722 138.926 43.6689 138.842 43.6689C138.65 43.6689 138.484 43.708 138.344 43.7861C138.207 43.861 138.103 43.9717 138.031 44.1182C137.96 44.2646 137.924 44.4453 137.924 44.6602V50.5ZM139.047 45.2168V45.9102H136.186V45.2168H139.047ZM139.763 47.917V47.8047C139.763 47.4238 139.819 47.0706 139.93 46.7451C140.04 46.4163 140.2 46.1315 140.408 45.8906C140.616 45.6465 140.869 45.4577 141.165 45.3242C141.461 45.1875 141.793 45.1191 142.161 45.1191C142.532 45.1191 142.866 45.1875 143.162 45.3242C143.461 45.4577 143.715 45.6465 143.924 45.8906C144.135 46.1315 144.296 46.4163 144.407 46.7451C144.518 47.0706 144.573 47.4238 144.573 47.8047V47.917C144.573 48.2979 144.518 48.651 144.407 48.9766C144.296 49.3021 144.135 49.5869 143.924 49.8311C143.715 50.0719 143.463 50.2607 143.167 50.3975C142.874 50.5309 142.542 50.5977 142.171 50.5977C141.8 50.5977 141.466 50.5309 141.17 50.3975C140.874 50.2607 140.62 50.0719 140.408 49.8311C140.2 49.5869 140.04 49.3021 139.93 48.9766C139.819 48.651 139.763 48.2979 139.763 47.917ZM140.667 47.8047V47.917C140.667 48.1807 140.698 48.4297 140.76 48.6641C140.821 48.8952 140.914 49.1003 141.038 49.2793C141.165 49.4583 141.323 49.5999 141.512 49.7041C141.7 49.805 141.92 49.8555 142.171 49.8555C142.418 49.8555 142.635 49.805 142.82 49.7041C143.009 49.5999 143.165 49.4583 143.289 49.2793C143.413 49.1003 143.505 48.8952 143.567 48.6641C143.632 48.4297 143.665 48.1807 143.665 47.917V47.8047C143.665 47.5443 143.632 47.2985 143.567 47.0674C143.505 46.833 143.411 46.6263 143.284 46.4473C143.16 46.265 143.004 46.1217 142.815 46.0176C142.63 45.9134 142.412 45.8613 142.161 45.8613C141.914 45.8613 141.695 45.9134 141.507 46.0176C141.321 46.1217 141.165 46.265 141.038 46.4473C140.914 46.6263 140.821 46.833 140.76 47.0674C140.698 47.2985 140.667 47.5443 140.667 47.8047ZM146.559 46.0469V50.5H145.656V45.2168H146.535L146.559 46.0469ZM148.21 45.1875L148.205 46.0273C148.13 46.0111 148.058 46.0013 147.99 45.998C147.925 45.9915 147.85 45.9883 147.765 45.9883C147.557 45.9883 147.373 46.0208 147.213 46.0859C147.054 46.151 146.919 46.2422 146.808 46.3594C146.698 46.4766 146.61 46.6165 146.545 46.7793C146.483 46.9388 146.442 47.1146 146.422 47.3066L146.169 47.4531C146.169 47.1341 146.199 46.8346 146.261 46.5547C146.326 46.2747 146.426 46.0273 146.559 45.8125C146.693 45.5944 146.862 45.4251 147.067 45.3047C147.275 45.181 147.523 45.1191 147.809 45.1191C147.874 45.1191 147.949 45.1273 148.034 45.1436C148.118 45.1566 148.177 45.1712 148.21 45.1875ZM149.893 46.2666V50.5H148.985V45.2168H149.844L149.893 46.2666ZM149.707 47.6582L149.288 47.6436C149.291 47.2822 149.338 46.9486 149.429 46.6426C149.52 46.3333 149.655 46.0648 149.834 45.8369C150.013 45.609 150.236 45.4333 150.503 45.3096C150.77 45.1826 151.079 45.1191 151.431 45.1191C151.678 45.1191 151.906 45.1549 152.115 45.2266C152.323 45.2949 152.504 45.404 152.657 45.5537C152.81 45.7035 152.928 45.8955 153.013 46.1299C153.098 46.3643 153.14 46.6475 153.14 46.9795V50.5H152.237V47.0234C152.237 46.7467 152.19 46.5254 152.095 46.3594C152.004 46.1934 151.874 46.0729 151.704 45.998C151.535 45.9199 151.337 45.8809 151.109 45.8809C150.842 45.8809 150.619 45.9281 150.44 46.0225C150.261 46.1169 150.118 46.2471 150.01 46.4131C149.903 46.5791 149.825 46.7695 149.776 46.9844C149.73 47.196 149.707 47.4206 149.707 47.6582ZM153.13 47.1602L152.525 47.3457C152.528 47.056 152.575 46.7777 152.666 46.5107C152.761 46.2438 152.896 46.0062 153.072 45.7979C153.251 45.5895 153.47 45.4251 153.731 45.3047C153.991 45.181 154.289 45.1191 154.624 45.1191C154.908 45.1191 155.158 45.1566 155.376 45.2314C155.598 45.3063 155.783 45.4219 155.933 45.5781C156.086 45.7311 156.202 45.9281 156.28 46.1689C156.358 46.4098 156.397 46.6963 156.397 47.0283V50.5H155.489V47.0186C155.489 46.7223 155.441 46.4928 155.347 46.3301C155.256 46.1641 155.126 46.0485 154.956 45.9834C154.79 45.915 154.592 45.8809 154.361 45.8809C154.162 45.8809 153.986 45.915 153.833 45.9834C153.68 46.0518 153.552 46.1462 153.448 46.2666C153.343 46.3838 153.264 46.5189 153.208 46.6719C153.156 46.8249 153.13 46.9876 153.13 47.1602ZM161.492 50.5H160.589V44.6602C160.589 44.2793 160.657 43.9587 160.794 43.6982C160.934 43.4346 161.134 43.236 161.395 43.1025C161.655 42.9658 161.964 42.8975 162.322 42.8975C162.426 42.8975 162.531 42.904 162.635 42.917C162.742 42.93 162.846 42.9495 162.947 42.9756L162.898 43.7129C162.83 43.6966 162.752 43.6852 162.664 43.6787C162.579 43.6722 162.495 43.6689 162.41 43.6689C162.218 43.6689 162.052 43.708 161.912 43.7861C161.775 43.861 161.671 43.9717 161.6 44.1182C161.528 44.2646 161.492 44.4453 161.492 44.6602V50.5ZM162.615 45.2168V45.9102H159.754V45.2168H162.615ZM163.332 47.917V47.8047C163.332 47.4238 163.387 47.0706 163.498 46.7451C163.609 46.4163 163.768 46.1315 163.976 45.8906C164.185 45.6465 164.437 45.4577 164.733 45.3242C165.029 45.1875 165.361 45.1191 165.729 45.1191C166.1 45.1191 166.434 45.1875 166.73 45.3242C167.03 45.4577 167.284 45.6465 167.492 45.8906C167.704 46.1315 167.865 46.4163 167.975 46.7451C168.086 47.0706 168.141 47.4238 168.141 47.8047V47.917C168.141 48.2979 168.086 48.651 167.975 48.9766C167.865 49.3021 167.704 49.5869 167.492 49.8311C167.284 50.0719 167.031 50.2607 166.735 50.3975C166.442 50.5309 166.11 50.5977 165.739 50.5977C165.368 50.5977 165.034 50.5309 164.738 50.3975C164.442 50.2607 164.188 50.0719 163.976 49.8311C163.768 49.5869 163.609 49.3021 163.498 48.9766C163.387 48.651 163.332 48.2979 163.332 47.917ZM164.235 47.8047V47.917C164.235 48.1807 164.266 48.4297 164.328 48.6641C164.39 48.8952 164.483 49.1003 164.606 49.2793C164.733 49.4583 164.891 49.5999 165.08 49.7041C165.269 49.805 165.488 49.8555 165.739 49.8555C165.986 49.8555 166.203 49.805 166.388 49.7041C166.577 49.5999 166.734 49.4583 166.857 49.2793C166.981 49.1003 167.074 48.8952 167.136 48.6641C167.201 48.4297 167.233 48.1807 167.233 47.917V47.8047C167.233 47.5443 167.201 47.2985 167.136 47.0674C167.074 46.833 166.979 46.6263 166.852 46.4473C166.729 46.265 166.572 46.1217 166.384 46.0176C166.198 45.9134 165.98 45.8613 165.729 45.8613C165.482 45.8613 165.264 45.9134 165.075 46.0176C164.889 46.1217 164.733 46.265 164.606 46.4473C164.483 46.6263 164.39 46.833 164.328 47.0674C164.266 47.2985 164.235 47.5443 164.235 47.8047ZM170.128 46.0469V50.5H169.224V45.2168H170.103L170.128 46.0469ZM171.778 45.1875L171.773 46.0273C171.698 46.0111 171.627 46.0013 171.558 45.998C171.493 45.9915 171.418 45.9883 171.334 45.9883C171.125 45.9883 170.941 46.0208 170.782 46.0859C170.622 46.151 170.487 46.2422 170.377 46.3594C170.266 46.4766 170.178 46.6165 170.113 46.7793C170.051 46.9388 170.01 47.1146 169.991 47.3066L169.737 47.4531C169.737 47.1341 169.768 46.8346 169.83 46.5547C169.895 46.2747 169.994 46.0273 170.128 45.8125C170.261 45.5944 170.43 45.4251 170.635 45.3047C170.844 45.181 171.091 45.1191 171.378 45.1191C171.443 45.1191 171.518 45.1273 171.602 45.1436C171.687 45.1566 171.745 45.1712 171.778 45.1875ZM176.141 43.3906V50.5H175.198V43.3906H176.141ZM178.571 46.3447V50.5H177.668V45.2168H178.522L178.571 46.3447ZM178.356 47.6582L177.98 47.6436C177.984 47.2822 178.037 46.9486 178.142 46.6426C178.246 46.3333 178.392 46.0648 178.581 45.8369C178.77 45.609 178.994 45.4333 179.255 45.3096C179.519 45.1826 179.81 45.1191 180.129 45.1191C180.389 45.1191 180.624 45.1549 180.832 45.2266C181.04 45.2949 181.218 45.4056 181.364 45.5586C181.514 45.7116 181.628 45.9102 181.706 46.1543C181.784 46.3952 181.823 46.6898 181.823 47.0381V50.5H180.915V47.0283C180.915 46.7516 180.874 46.5303 180.793 46.3643C180.712 46.195 180.593 46.0729 180.437 45.998C180.28 45.9199 180.088 45.8809 179.86 45.8809C179.636 45.8809 179.431 45.9281 179.245 46.0225C179.063 46.1169 178.905 46.2471 178.771 46.4131C178.641 46.5791 178.539 46.7695 178.464 46.9844C178.392 47.196 178.356 47.4206 178.356 47.6582ZM185.357 45.2168V45.9102H182.501V45.2168H185.357ZM183.468 43.9326H184.371V49.1914C184.371 49.3704 184.399 49.5055 184.454 49.5967C184.509 49.6878 184.581 49.748 184.669 49.7773C184.757 49.8066 184.851 49.8213 184.952 49.8213C185.027 49.8213 185.105 49.8148 185.186 49.8018C185.271 49.7855 185.334 49.7725 185.377 49.7627L185.382 50.5C185.31 50.5228 185.216 50.5439 185.098 50.5635C184.985 50.5863 184.846 50.5977 184.683 50.5977C184.462 50.5977 184.259 50.5537 184.073 50.4658C183.888 50.3779 183.739 50.2314 183.629 50.0264C183.521 49.818 183.468 49.5381 183.468 49.1865V43.9326ZM188.559 50.5977C188.191 50.5977 187.858 50.5358 187.558 50.4121C187.262 50.2852 187.006 50.1077 186.792 49.8799C186.58 49.652 186.417 49.3818 186.303 49.0693C186.189 48.7568 186.132 48.415 186.132 48.0439V47.8389C186.132 47.4092 186.196 47.0267 186.323 46.6914C186.45 46.3529 186.622 46.0664 186.84 45.832C187.059 45.5977 187.306 45.4202 187.583 45.2998C187.859 45.1794 188.146 45.1191 188.442 45.1191C188.82 45.1191 189.145 45.1842 189.419 45.3145C189.695 45.4447 189.921 45.627 190.097 45.8613C190.273 46.0924 190.403 46.3659 190.488 46.6816C190.573 46.9941 190.615 47.3359 190.615 47.707V48.1123H186.67V47.375H189.712V47.3066C189.698 47.0723 189.65 46.8444 189.565 46.623C189.484 46.4017 189.353 46.2194 189.174 46.0762C188.995 45.9329 188.751 45.8613 188.442 45.8613C188.237 45.8613 188.048 45.9053 187.876 45.9932C187.703 46.0778 187.555 46.2048 187.431 46.374C187.308 46.5433 187.212 46.75 187.143 46.9941C187.075 47.2383 187.041 47.5199 187.041 47.8389V48.0439C187.041 48.2946 187.075 48.5306 187.143 48.752C187.215 48.9701 187.317 49.1621 187.451 49.3281C187.587 49.4941 187.752 49.6243 187.944 49.7188C188.139 49.8132 188.361 49.8604 188.608 49.8604C188.927 49.8604 189.197 49.7952 189.419 49.665C189.64 49.5348 189.834 49.3607 190 49.1426L190.546 49.5771C190.433 49.7497 190.288 49.9141 190.112 50.0703C189.936 50.2266 189.72 50.3535 189.462 50.4512C189.209 50.5488 188.907 50.5977 188.559 50.5977ZM192.523 46.0469V50.5H191.62V45.2168H192.498L192.523 46.0469ZM194.173 45.1875L194.168 46.0273C194.093 46.0111 194.022 46.0013 193.954 45.998C193.888 45.9915 193.814 45.9883 193.729 45.9883C193.521 45.9883 193.337 46.0208 193.177 46.0859C193.018 46.151 192.883 46.2422 192.772 46.3594C192.661 46.4766 192.573 46.6165 192.508 46.7793C192.446 46.9388 192.406 47.1146 192.386 47.3066L192.132 47.4531C192.132 47.1341 192.163 46.8346 192.225 46.5547C192.29 46.2747 192.389 46.0273 192.523 45.8125C192.656 45.5944 192.826 45.4251 193.031 45.3047C193.239 45.181 193.486 45.1191 193.773 45.1191C193.838 45.1191 193.913 45.1273 193.997 45.1436C194.082 45.1566 194.141 45.1712 194.173 45.1875ZM195.862 46.3447V50.5H194.958V45.2168H195.813L195.862 46.3447ZM195.647 47.6582L195.271 47.6436C195.274 47.2822 195.328 46.9486 195.432 46.6426C195.536 46.3333 195.682 46.0648 195.871 45.8369C196.06 45.609 196.285 45.4333 196.545 45.3096C196.809 45.1826 197.1 45.1191 197.419 45.1191C197.68 45.1191 197.914 45.1549 198.122 45.2266C198.331 45.2949 198.508 45.4056 198.654 45.5586C198.804 45.7116 198.918 45.9102 198.996 46.1543C199.074 46.3952 199.113 46.6898 199.113 47.0381V50.5H198.205V47.0283C198.205 46.7516 198.165 46.5303 198.083 46.3643C198.002 46.195 197.883 46.0729 197.727 45.998C197.57 45.9199 197.378 45.8809 197.151 45.8809C196.926 45.8809 196.721 45.9281 196.535 46.0225C196.353 46.1169 196.195 46.2471 196.062 46.4131C195.931 46.5791 195.829 46.7695 195.754 46.9844C195.682 47.196 195.647 47.4206 195.647 47.6582ZM203.551 49.5967V46.877C203.551 46.6686 203.508 46.488 203.424 46.335C203.342 46.1787 203.219 46.0583 203.053 45.9736C202.887 45.889 202.682 45.8467 202.438 45.8467C202.21 45.8467 202.009 45.8857 201.837 45.9639C201.668 46.042 201.534 46.1445 201.437 46.2715C201.342 46.3984 201.295 46.5352 201.295 46.6816H200.392C200.392 46.4928 200.44 46.3057 200.538 46.1201C200.636 45.9346 200.776 45.7669 200.958 45.6172C201.144 45.4642 201.365 45.3438 201.622 45.2559C201.882 45.1647 202.172 45.1191 202.491 45.1191C202.875 45.1191 203.214 45.1842 203.507 45.3145C203.803 45.4447 204.034 45.6416 204.2 45.9053C204.369 46.1657 204.454 46.4928 204.454 46.8867V49.3477C204.454 49.5234 204.469 49.7106 204.498 49.9092C204.531 50.1077 204.578 50.2786 204.64 50.4219V50.5H203.697C203.652 50.3958 203.616 50.2575 203.59 50.085C203.564 49.9092 203.551 49.7464 203.551 49.5967ZM203.707 47.2969L203.717 47.9316H202.804C202.547 47.9316 202.317 47.9528 202.115 47.9951C201.913 48.0342 201.744 48.0944 201.607 48.1758C201.471 48.2572 201.367 48.3597 201.295 48.4834C201.223 48.6038 201.188 48.7454 201.188 48.9082C201.188 49.0742 201.225 49.2256 201.3 49.3623C201.375 49.499 201.487 49.6081 201.637 49.6895C201.79 49.7676 201.977 49.8066 202.198 49.8066C202.475 49.8066 202.719 49.748 202.931 49.6309C203.142 49.5137 203.31 49.3704 203.434 49.2012C203.561 49.0319 203.629 48.8675 203.639 48.708L204.024 49.1426C204.002 49.2793 203.94 49.4307 203.839 49.5967C203.738 49.7627 203.603 49.9222 203.434 50.0752C203.268 50.2249 203.069 50.3503 202.838 50.4512C202.61 50.5488 202.353 50.5977 202.066 50.5977C201.708 50.5977 201.394 50.5277 201.124 50.3877C200.857 50.2477 200.649 50.0605 200.499 49.8262C200.353 49.5885 200.279 49.3232 200.279 49.0303C200.279 48.7471 200.335 48.498 200.445 48.2832C200.556 48.0651 200.715 47.8844 200.924 47.7412C201.132 47.5947 201.383 47.484 201.676 47.4092C201.969 47.3343 202.296 47.2969 202.657 47.2969H203.707ZM206.806 43V50.5H205.898V43H206.806ZM209.188 45.2168V50.5H208.28V45.2168H209.188ZM208.212 43.8154C208.212 43.6689 208.255 43.5452 208.343 43.4443C208.434 43.3434 208.568 43.293 208.744 43.293C208.916 43.293 209.048 43.3434 209.139 43.4443C209.234 43.5452 209.281 43.6689 209.281 43.8154C209.281 43.9554 209.234 44.0758 209.139 44.1768C209.048 44.2744 208.916 44.3232 208.744 44.3232C208.568 44.3232 208.434 44.2744 208.343 44.1768C208.255 44.0758 208.212 43.9554 208.212 43.8154ZM214.524 49.7578V50.5H210.681V49.7578H214.524ZM214.382 45.8564L210.886 50.5H210.334V49.8359L213.806 45.2168H214.382V45.8564ZM213.982 45.2168V45.9639H210.373V45.2168H213.982ZM218.614 49.5967V46.877C218.614 46.6686 218.572 46.488 218.487 46.335C218.406 46.1787 218.282 46.0583 218.116 45.9736C217.95 45.889 217.745 45.8467 217.501 45.8467C217.273 45.8467 217.073 45.8857 216.901 45.9639C216.731 46.042 216.598 46.1445 216.5 46.2715C216.406 46.3984 216.359 46.5352 216.359 46.6816H215.455C215.455 46.4928 215.504 46.3057 215.602 46.1201C215.699 45.9346 215.839 45.7669 216.022 45.6172C216.207 45.4642 216.429 45.3438 216.686 45.2559C216.946 45.1647 217.236 45.1191 217.555 45.1191C217.939 45.1191 218.278 45.1842 218.57 45.3145C218.867 45.4447 219.098 45.6416 219.264 45.9053C219.433 46.1657 219.518 46.4928 219.518 46.8867V49.3477C219.518 49.5234 219.532 49.7106 219.562 49.9092C219.594 50.1077 219.641 50.2786 219.703 50.4219V50.5H218.761C218.715 50.3958 218.68 50.2575 218.654 50.085C218.627 49.9092 218.614 49.7464 218.614 49.5967ZM218.771 47.2969L218.78 47.9316H217.867C217.61 47.9316 217.381 47.9528 217.179 47.9951C216.977 48.0342 216.808 48.0944 216.671 48.1758C216.534 48.2572 216.43 48.3597 216.359 48.4834C216.287 48.6038 216.251 48.7454 216.251 48.9082C216.251 49.0742 216.289 49.2256 216.363 49.3623C216.438 49.499 216.551 49.6081 216.7 49.6895C216.853 49.7676 217.041 49.8066 217.262 49.8066C217.539 49.8066 217.783 49.748 217.994 49.6309C218.206 49.5137 218.374 49.3704 218.497 49.2012C218.624 49.0319 218.693 48.8675 218.702 48.708L219.088 49.1426C219.065 49.2793 219.003 49.4307 218.903 49.5967C218.802 49.7627 218.667 49.9222 218.497 50.0752C218.331 50.2249 218.133 50.3503 217.902 50.4512C217.674 50.5488 217.417 50.5977 217.13 50.5977C216.772 50.5977 216.458 50.5277 216.188 50.3877C215.921 50.2477 215.712 50.0605 215.563 49.8262C215.416 49.5885 215.343 49.3232 215.343 49.0303C215.343 48.7471 215.398 48.498 215.509 48.2832C215.62 48.0651 215.779 47.8844 215.987 47.7412C216.196 47.5947 216.446 47.484 216.739 47.4092C217.032 47.3343 217.36 47.2969 217.721 47.2969H218.771ZM223.101 45.2168V45.9102H220.244V45.2168H223.101ZM221.211 43.9326H222.114V49.1914C222.114 49.3704 222.142 49.5055 222.197 49.5967C222.253 49.6878 222.324 49.748 222.412 49.7773C222.5 49.8066 222.594 49.8213 222.695 49.8213C222.77 49.8213 222.848 49.8148 222.93 49.8018C223.014 49.7855 223.078 49.7725 223.12 49.7627L223.125 50.5C223.053 50.5228 222.959 50.5439 222.842 50.5635C222.728 50.5863 222.59 50.5977 222.427 50.5977C222.205 50.5977 222.002 50.5537 221.816 50.4658C221.631 50.3779 221.483 50.2314 221.372 50.0264C221.265 49.818 221.211 49.5381 221.211 49.1865V43.9326ZM225.092 45.2168V50.5H224.183V45.2168H225.092ZM224.115 43.8154C224.115 43.6689 224.159 43.5452 224.247 43.4443C224.338 43.3434 224.471 43.293 224.647 43.293C224.82 43.293 224.952 43.3434 225.043 43.4443C225.137 43.5452 225.184 43.6689 225.184 43.8154C225.184 43.9554 225.137 44.0758 225.043 44.1768C224.952 44.2744 224.82 44.3232 224.647 44.3232C224.471 44.3232 224.338 44.2744 224.247 44.1768C224.159 44.0758 224.115 43.9554 224.115 43.8154ZM226.253 47.917V47.8047C226.253 47.4238 226.308 47.0706 226.419 46.7451C226.529 46.4163 226.689 46.1315 226.897 45.8906C227.105 45.6465 227.358 45.4577 227.654 45.3242C227.95 45.1875 228.282 45.1191 228.65 45.1191C229.021 45.1191 229.355 45.1875 229.651 45.3242C229.95 45.4577 230.204 45.6465 230.413 45.8906C230.624 46.1315 230.785 46.4163 230.896 46.7451C231.007 47.0706 231.062 47.4238 231.062 47.8047V47.917C231.062 48.2979 231.007 48.651 230.896 48.9766C230.785 49.3021 230.624 49.5869 230.413 49.8311C230.204 50.0719 229.952 50.2607 229.656 50.3975C229.363 50.5309 229.031 50.5977 228.66 50.5977C228.289 50.5977 227.955 50.5309 227.659 50.3975C227.363 50.2607 227.109 50.0719 226.897 49.8311C226.689 49.5869 226.529 49.3021 226.419 48.9766C226.308 48.651 226.253 48.2979 226.253 47.917ZM227.156 47.8047V47.917C227.156 48.1807 227.187 48.4297 227.249 48.6641C227.31 48.8952 227.403 49.1003 227.527 49.2793C227.654 49.4583 227.812 49.5999 228.001 49.7041C228.189 49.805 228.409 49.8555 228.66 49.8555C228.907 49.8555 229.124 49.805 229.309 49.7041C229.498 49.5999 229.654 49.4583 229.778 49.2793C229.902 49.1003 229.994 48.8952 230.056 48.6641C230.121 48.4297 230.154 48.1807 230.154 47.917V47.8047C230.154 47.5443 230.121 47.2985 230.056 47.0674C229.994 46.833 229.9 46.6263 229.773 46.4473C229.649 46.265 229.493 46.1217 229.304 46.0176C229.119 45.9134 228.901 45.8613 228.65 45.8613C228.403 45.8613 228.184 45.9134 227.996 46.0176C227.81 46.1217 227.654 46.265 227.527 46.4473C227.403 46.6263 227.31 46.833 227.249 47.0674C227.187 47.2985 227.156 47.5443 227.156 47.8047ZM233.048 46.3447V50.5H232.145V45.2168H232.999L233.048 46.3447ZM232.833 47.6582L232.457 47.6436C232.461 47.2822 232.514 46.9486 232.619 46.6426C232.723 46.3333 232.869 46.0648 233.058 45.8369C233.247 45.609 233.471 45.4333 233.732 45.3096C233.996 45.1826 234.287 45.1191 234.606 45.1191C234.866 45.1191 235.101 45.1549 235.309 45.2266C235.517 45.2949 235.695 45.4056 235.841 45.5586C235.991 45.7116 236.105 45.9102 236.183 46.1543C236.261 46.3952 236.3 46.6898 236.3 47.0381V50.5H235.392V47.0283C235.392 46.7516 235.351 46.5303 235.27 46.3643C235.189 46.195 235.07 46.0729 234.913 45.998C234.757 45.9199 234.565 45.8809 234.337 45.8809C234.113 45.8809 233.908 45.9281 233.722 46.0225C233.54 46.1169 233.382 46.2471 233.248 46.4131C233.118 46.5791 233.016 46.7695 232.941 46.9844C232.869 47.196 232.833 47.4206 232.833 47.6582Z" fill="white"/>
</svg>
